<svg id="Layer_1" data-name="Layer 1" xmlns="http://www.w3.org/2000/svg" viewBox="0 0 400 300" width="406" height="306" class="illustration styles_illustrationTablet__1DWOa"><path d="M171.75,251.44s3.15,2.95,6.55,1.55,5.9,1.37,3.39,3.7-12,2.44-12,2.44L166.88,253Z" fill="#2bbbad"></path><path d="M118.75,250.07s-1.55,4,1,6.66,1,6-2.15,4.53S110.85,251,110.85,251l4.61-4.89Z" fill="#2bbbad"></path><ellipse cx="133.69" cy="259.13" rx="92.1" ry="13.07" fill="#e6e6e6" opacity="0.3"></ellipse><rect x="180.83" y="25.28" width="157.11" height="181.12" fill="#e6e6e6"></rect><rect x="204.49" y="63.07" width="113.1" height="33.33" fill="#24285b"></rect><line x1="192.32" y1="35.18" x2="206.6" y2="35.18" fill="none" stroke="#a8a8a8" stroke-miterlimit="10" stroke-width="2"></line><line x1="192.32" y1="40.76" x2="206.6" y2="40.76" fill="none" stroke="#a8a8a8" stroke-miterlimit="10" stroke-width="2"></line><line x1="192.32" y1="46.34" x2="206.6" y2="46.34" fill="none" stroke="#a8a8a8" stroke-miterlimit="10" stroke-width="2"></line><rect x="225.79" y="35.18" width="91.8" height="12.14" fill="#fff"></rect><circle cx="225.07" cy="79.89" r="11.99" fill="#ffd200"></circle><polyline points="220.65 80.01 223.7 84.46 230.04 76.25" fill="none" stroke="#fff" stroke-linecap="round" stroke-linejoin="round" stroke-width="4"></polyline><rect x="246.11" y="72.42" width="47.65" height="5.28" fill="#fff" opacity="0.17"></rect><rect x="246.11" y="82.98" width="29.86" height="5.28" fill="#fff" opacity="0.17"></rect><rect x="204.49" y="106.09" width="113.1" height="33.33" fill="#24285b"></rect><circle cx="225.07" cy="122.9" r="11.99" fill="#fff" opacity="0.17"></circle><rect x="246.11" y="115.44" width="47.65" height="5.28" fill="#fff" opacity="0.17"></rect><rect x="246.11" y="126" width="29.86" height="5.28" fill="#fff" opacity="0.17"></rect><rect x="204.49" y="149.11" width="113.1" height="33.33" fill="#24285b"></rect><circle cx="225.07" cy="165.92" r="11.99" fill="#fff" opacity="0.17"></circle><rect x="246.11" y="158.46" width="47.65" height="5.28" fill="#fff" opacity="0.17"></rect><rect x="246.11" y="169.01" width="29.86" height="5.28" fill="#fff" opacity="0.17"></rect><path d="M110.3,174.37S107,187.52,112.76,194s14.64,37.11,0,52.43l5.79,5.45s25.35-12.94,18.12-59.58l18.1-17.91Z" fill="#24285b"></path><path d="M216.26,117.81s8.88,14.91-4.06,19.29c0,0-4,44.72-31.37,52.55V174.37l21.5-45.78Z" opacity="0.09"></path><path d="M154.77,99.52s17.91,4.57,18,19.4-7.95,40.78,3.57,42.9,18.41-29.93,18.41-29.93L203,135.2s-8.74,54.75-38.93,45.72S154.77,99.52,154.77,99.52Z" fill="#2bbbad"></path><path d="M154.77,99.52s17.91,4.57,18,19.4-7.95,40.78,3.57,42.9,18.41-29.93,18.41-29.93L203,135.2s-8.74,54.75-38.93,45.72S154.77,99.52,154.77,99.52Z" fill="#fff" opacity="0.44"></path><polygon points="138.66 75.17 133.21 94.41 144.02 96.66 143.65 81.76 138.66 75.17" fill="#f4a28c"></polygon><path d="M143.87,85a7.3,7.3,0,0,1-3.3-2.54s-.27,3.65,3.29,7.71Z" fill="#ce8172" opacity="0.31"></path><path d="M133.21,94.41l6.41,1.33s29.35,3.17,30.54,19.73-15.39,58.9-15.39,58.9H110.3S74.67,90,133.21,94.41Z" fill="#2bbbad"></path><path d="M129.36,109.76s3.59,10.35-5.81,17.1S118.73,159,129,163.14s-6.43,12.89-13.56,9.3-8.13-6-8.13-6-6.61-19.12-7.31-31.33S129.36,109.76,129.36,109.76Z" opacity="0.09"></path><rect x="105.61" y="157.9" width="26.84" height="35.82" transform="translate(45.58 -23.39) rotate(13.86)" fill="#ffd200"></rect><path d="M125.62,177.62s1.67,4.1-4.12,4.95-18,0-18,0l2-8.2Z" opacity="0.09"></path><path d="M129.36,109.76c0-9.11-9.22-15.33-17.88-12.49-7.53,2.47-16.71,7-22.29,15.42-10.73,16.09-35.24,63.11,27,64.93l1.83-6.93s-37.34-10.33-20.86-32.18C110,121.52,129.4,122.66,129.36,109.76Z" fill="#2bbbad"></path><path d="M129.36,109.76c0-9.11-9.22-15.33-17.88-12.49-7.53,2.47-16.71,7-22.29,15.42-10.73,16.09-35.24,63.11,27,64.93l1.83-6.93s-37.34-10.33-20.86-32.18C110,121.52,129.4,122.66,129.36,109.76Z" fill="#fff" opacity="0.44"></path><path d="M196.71,132.67s.46-7.93,3.64-10.18,2.65,3.45,2.65,3.45,3.18-3.71,5.83-2S203,135.2,203,135.2Z" fill="#f4a28c"></path><path d="M149.86,75.74s-.54,6.07-2.26,9.88a3.07,3.07,0,0,1-4.07,1.52,6.79,6.79,0,0,1-4.32-5.94l-.86-5.57a5.47,5.47,0,0,1,3.4-5.34C145.57,68.45,150.38,72.05,149.86,75.74Z" fill="#f4a28c"></path><path d="M149.32,79.55l1.26,2.61a1,1,0,0,1-.86,1.4l-2.38,0Z" fill="#f4a28c"></path><circle cx="204.27" cy="117.81" r="11.99" fill="#ffd200"></circle><polyline points="199.86 117.93 202.91 122.39 209.24 114.18" fill="none" stroke="#fff" stroke-linecap="round" stroke-linejoin="round" stroke-width="4"></polyline><path d="M154.77,174.37l18.59,77.49-9.29,1.36s-18.59-53.11-30.86-64Z" fill="#24285b"></path><path d="M117.73,171.65s6.64-1.06,8.86,3.53-10.43,2.44-10.43,2.44Z" fill="#f4a28c"></path><path d="M68.69,247.84s-7.45-2-9.07-9c0,0,11.54-2.34,11.87,9.58Z" fill="#2bbbad" opacity="0.58"></path><path d="M69.6,247.11s-5.2-8.23-.62-15.93c0,0,8.77,5.58,4.87,15.94Z" fill="#2bbbad" opacity="0.73"></path><path d="M70.94,247.11s2.75-8.69,11.07-10.33c0,0,1.55,5.64-5.39,10.35Z" fill="#2bbbad"></path><polygon points="65.54 246.92 67.05 257.25 76.56 257.29 77.96 246.97 65.54 246.92" fill="#24285b"></polygon><path d="M136.85,81.57l3.72-.91,2.26-1.11s1.63-.1,1-4.06c0,0,8,2.76,9-2,1.15-5.17-4.81-7.47-9-7a6.78,6.78,0,0,0-5.53,4.34S131.7,69.77,136.85,81.57Z" fill="#24285b"></path><path d="M142.56,79.74s.37-2.32-1.4-2.45-2.32,3.22,0,3.95Z" fill="#f4a28c"></path></svg>